# xmcd
#
# Track frame offsets:
#	150
#	15992
#	27207
#	37332
#	52160
#	64277
#	78340
#	90382
#	104577
#	114407
#	132027
#	147025
#	161382
#	176095
#	192860
#	209210
#	222485
#	235242
#
# Disc length: 3454
#
# Revision: 1
# Processed by: cddbd v1.5.1PL0 Copyright (c) Steve Scherf et al.
# Submitted via: dBpowerAMP V4.0
# Normalized: r0:DSETVAR1,TDELIM( - )
#
DISCID=030d7c12
DTITLE=Various Artist - 100 Años de Bolero. Vol 1
DYEAR=1995
DGENRE=Ballad
TTITLE0=Lucho Gatica - La Barca
TTITLE1=Eydie Gorme y Los Panchos - Historia de Un Amor
TTITLE2=Olga Guillot - Soy lo Prohibido
TTITLE3=Armando Manzanero - Somos Novios
TTITLE4=Los Panchos - Lo Dudo
TTITLE5=Celia Cruz - Lagrimas Negras
TTITLE6=Cuco Sanchez - Guitarras, Lloren Guitarras
TTITLE7=Cavela Vargas - Angelitos Negros
TTITLE8=Bola de Nieve - Vete de Mi
TTITLE9=Mocedades - Donde estas, corazon
TTITLE10=Lola Beltran - Que seas feliz
TTITLE11=Javier Solis y Los Panchos - Sombras
TTITLE12=Lucho Gatica - Esperame en el cielo
TTITLE13=Jose Alfredo Jimenez - Un mundo raro
TTITLE14=Trio Calaveras - Quiereme mucho
TTITLE15=Chavela Vargas - Luz de luna
TTITLE16=Los Panchos - Ansiedad
TTITLE17=Rocio Jurado - El amor se acaba
EXTD=
EXTT0=
EXTT1=
EXTT2=
EXTT3=
EXTT4=
EXTT5=
EXTT6=
EXTT7=
EXTT8=
EXTT9=
EXTT10=
EXTT11=
EXTT12=
EXTT13=
EXTT14=
EXTT15=
EXTT16=
EXTT17=
PLAYORDER=
